<svg id="visual" viewBox="0 0 960 540" width="960" height="540" xmlns="http://www.w3.org/2000/svg" xmlns:xlink="http://www.w3.org/1999/xlink" version="1.1"><path d="M0 33L12.3 31.3C24.7 29.7 49.3 26.3 74 25.5C98.7 24.7 123.3 26.3 148 28C172.7 29.7 197.3 31.3 221.8 29.5C246.3 27.7 270.7 22.3 295.2 22.3C319.7 22.3 344.3 27.7 369 29.5C393.7 31.3 418.3 29.7 443 28C467.7 26.3 492.3 24.7 517 22.8C541.7 21 566.3 19 591 20.7C615.7 22.3 640.3 27.7 664.8 28.7C689.3 29.7 713.7 26.3 738.2 24.7C762.7 23 787.3 23 812 23C836.7 23 861.3 23 886 23.8C910.7 24.7 935.3 26.3 947.7 27.2L960 28L960 0L947.7 0C935.3 0 910.7 0 886 0C861.3 0 836.7 0 812 0C787.3 0 762.7 0 738.2 0C713.7 0 689.3 0 664.8 0C640.3 0 615.7 0 591 0C566.3 0 541.7 0 517 0C492.3 0 467.7 0 443 0C418.3 0 393.7 0 369 0C344.3 0 319.7 0 295.2 0C270.7 0 246.3 0 221.8 0C197.3 0 172.7 0 148 0C123.3 0 98.7 0 74 0C49.3 0 24.7 0 12.3 0L0 0Z" fill="#0052d4"></path><path d="M0 147L12.3 147.8C24.7 148.7 49.3 150.3 74 153.8C98.7 157.3 123.3 162.7 148 155.5C172.7 148.3 197.3 128.7 221.8 122.5C246.3 116.3 270.7 123.7 295.2 132.7C319.7 141.7 344.3 152.3 369 155C393.7 157.7 418.3 152.3 443 152.3C467.7 152.3 492.3 157.7 517 155C541.7 152.3 566.3 141.7 591 134.5C615.7 127.3 640.3 123.7 664.8 129.8C689.3 136 713.7 152 738.2 148.3C762.7 144.7 787.3 121.3 812 123.2C836.7 125 861.3 152 886 162.8C910.7 173.7 935.3 168.3 947.7 165.7L960 163L960 26L947.7 25.2C935.3 24.3 910.7 22.7 886 21.8C861.3 21 836.7 21 812 21C787.3 21 762.7 21 738.2 22.7C713.7 24.3 689.3 27.7 664.8 26.7C640.3 25.7 615.7 20.3 591 18.7C566.3 17 541.7 19 517 20.8C492.3 22.7 467.7 24.3 443 26C418.3 27.7 393.7 29.3 369 27.5C344.3 25.7 319.7 20.3 295.2 20.3C270.7 20.3 246.3 25.7 221.8 27.5C197.3 29.3 172.7 27.7 148 26C123.3 24.3 98.7 22.7 74 23.5C49.3 24.3 24.7 27.7 12.3 29.3L0 31Z" fill="#095dda"></path><path d="M0 185L12.3 191.2C24.7 197.3 49.3 209.7 74 213.2C98.7 216.7 123.3 211.3 148 202.3C172.7 193.3 197.3 180.7 221.8 177.2C246.3 173.7 270.7 179.3 295.2 189.3C319.7 199.3 344.3 213.7 369 213.7C393.7 213.7 418.3 199.3 443 199.3C467.7 199.3 492.3 213.7 517 213.7C541.7 213.7 566.3 199.3 591 193C615.7 186.7 640.3 188.3 664.8 191C689.3 193.7 713.7 197.3 738.2 192C762.7 186.7 787.3 172.3 812 179.5C836.7 186.7 861.3 215.3 886 226C910.7 236.7 935.3 229.3 947.7 225.7L960 222L960 161L947.7 163.7C935.3 166.3 910.7 171.7 886 160.8C861.3 150 836.7 123 812 121.2C787.3 119.3 762.7 142.7 738.2 146.3C713.7 150 689.3 134 664.8 127.8C640.3 121.7 615.7 125.3 591 132.5C566.3 139.7 541.7 150.3 517 153C492.3 155.7 467.7 150.3 443 150.3C418.3 150.3 393.7 155.7 369 153C344.3 150.3 319.7 139.7 295.2 130.7C270.7 121.7 246.3 114.3 221.8 120.5C197.3 126.7 172.7 146.3 148 153.5C123.3 160.7 98.7 155.3 74 151.8C49.3 148.3 24.7 146.7 12.3 145.8L0 145Z" fill="#1668e0"></path><path d="M0 201L12.3 209C24.7 217 49.3 233 74 236.5C98.7 240 123.3 231 148 223C172.7 215 197.3 208 221.8 208C246.3 208 270.7 215 295.2 224.8C319.7 234.7 344.3 247.3 369 245.7C393.7 244 418.3 228 443 229C467.7 230 492.3 248 517 246.2C541.7 244.3 566.3 222.7 591 216.3C615.7 210 640.3 219 664.8 223.5C689.3 228 713.7 228 738.2 221.7C762.7 215.3 787.3 202.7 812 209C836.7 215.3 861.3 240.7 886 248.8C910.7 257 935.3 248 947.7 243.5L960 239L960 220L947.7 223.7C935.3 227.3 910.7 234.7 886 224C861.3 213.3 836.7 184.7 812 177.5C787.3 170.3 762.7 184.7 738.2 190C713.7 195.3 689.3 191.7 664.8 189C640.3 186.3 615.7 184.7 591 191C566.3 197.3 541.7 211.7 517 211.7C492.3 211.7 467.7 197.3 443 197.3C418.3 197.3 393.7 211.7 369 211.7C344.3 211.7 319.7 197.3 295.2 187.3C270.7 177.3 246.3 171.7 221.8 175.2C197.3 178.7 172.7 191.3 148 200.3C123.3 209.3 98.7 214.7 74 211.2C49.3 207.7 24.7 195.3 12.3 189.2L0 183Z" fill="#2273e5"></path><path d="M0 330L12.3 330C24.7 330 49.3 330 74 328.3C98.7 326.7 123.3 323.3 148 323.3C172.7 323.3 197.3 326.7 221.8 328.3C246.3 330 270.7 330 295.2 330C319.7 330 344.3 330 369 327.3C393.7 324.7 418.3 319.3 443 322.2C467.7 325 492.3 336 517 341.5C541.7 347 566.3 347 591 347.8C615.7 348.7 640.3 350.3 664.8 349.3C689.3 348.3 713.7 344.7 738.2 342.8C762.7 341 787.3 341 812 342C836.7 343 861.3 345 886 340.5C910.7 336 935.3 325 947.7 319.5L960 314L960 237L947.7 241.5C935.3 246 910.7 255 886 246.8C861.3 238.7 836.7 213.3 812 207C787.3 200.7 762.7 213.3 738.2 219.7C713.7 226 689.3 226 664.8 221.5C640.3 217 615.7 208 591 214.3C566.3 220.7 541.7 242.3 517 244.2C492.3 246 467.7 228 443 227C418.3 226 393.7 242 369 243.7C344.3 245.3 319.7 232.7 295.2 222.8C270.7 213 246.3 206 221.8 206C197.3 206 172.7 213 148 221C123.3 229 98.7 238 74 234.5C49.3 231 24.7 215 12.3 207L0 199Z" fill="#2f7eea"></path><path d="M0 368L12.3 365.3C24.7 362.7 49.3 357.3 74 358.3C98.7 359.3 123.3 366.7 148 369.3C172.7 372 197.3 370 221.8 367.2C246.3 364.3 270.7 360.7 295.2 360.7C319.7 360.7 344.3 364.3 369 361.7C393.7 359 418.3 350 443 351C467.7 352 492.3 363 517 372C541.7 381 566.3 388 591 389.7C615.7 391.3 640.3 387.7 664.8 384.2C689.3 380.7 713.7 377.3 738.2 377.3C762.7 377.3 787.3 380.7 812 384.2C836.7 387.7 861.3 391.3 886 386.8C910.7 382.3 935.3 369.7 947.7 363.3L960 357L960 312L947.7 317.5C935.3 323 910.7 334 886 338.5C861.3 343 836.7 341 812 340C787.3 339 762.7 339 738.2 340.8C713.7 342.7 689.3 346.3 664.8 347.3C640.3 348.3 615.7 346.7 591 345.8C566.3 345 541.7 345 517 339.5C492.3 334 467.7 323 443 320.2C418.3 317.3 393.7 322.7 369 325.3C344.3 328 319.7 328 295.2 328C270.7 328 246.3 328 221.8 326.3C197.3 324.7 172.7 321.3 148 321.3C123.3 321.3 98.7 324.7 74 326.3C49.3 328 24.7 328 12.3 328L0 328Z" fill="#3b88ee"></path><path d="M0 428L12.3 423.5C24.7 419 49.3 410 74 410.8C98.7 411.7 123.3 422.3 148 426.8C172.7 431.3 197.3 429.7 221.8 425.2C246.3 420.7 270.7 413.3 295.2 413.3C319.7 413.3 344.3 420.7 369 418C393.7 415.3 418.3 402.7 443 399C467.7 395.3 492.3 400.7 517 407.8C541.7 415 566.3 424 591 425.8C615.7 427.7 640.3 422.3 664.8 420.5C689.3 418.7 713.7 420.3 738.2 422.2C762.7 424 787.3 426 812 426C836.7 426 861.3 424 886 418.5C910.7 413 935.3 404 947.7 399.5L960 395L960 355L947.7 361.3C935.3 367.7 910.7 380.3 886 384.8C861.3 389.3 836.7 385.7 812 382.2C787.3 378.7 762.7 375.3 738.2 375.3C713.7 375.3 689.3 378.7 664.8 382.2C640.3 385.7 615.7 389.3 591 387.7C566.3 386 541.7 379 517 370C492.3 361 467.7 350 443 349C418.3 348 393.7 357 369 359.7C344.3 362.3 319.7 358.7 295.2 358.7C270.7 358.7 246.3 362.3 221.8 365.2C197.3 368 172.7 370 148 367.3C123.3 364.7 98.7 357.3 74 356.3C49.3 355.3 24.7 360.7 12.3 363.3L0 366Z" fill="#4893f2"></path><path d="M0 449L12.3 443.7C24.7 438.3 49.3 427.7 74 427.7C98.7 427.7 123.3 438.3 148 445.5C172.7 452.7 197.3 456.3 221.8 455.5C246.3 454.7 270.7 449.3 295.2 446.7C319.7 444 344.3 444 369 439.5C393.7 435 418.3 426 443 425C467.7 424 492.3 431 517 437.3C541.7 443.7 566.3 449.3 591 451.2C615.7 453 640.3 451 664.8 449.2C689.3 447.3 713.7 445.7 738.2 446.7C762.7 447.7 787.3 451.3 812 451.3C836.7 451.3 861.3 447.7 886 442.2C910.7 436.7 935.3 429.3 947.7 425.7L960 422L960 393L947.7 397.5C935.3 402 910.7 411 886 416.5C861.3 422 836.7 424 812 424C787.3 424 762.7 422 738.2 420.2C713.7 418.3 689.3 416.7 664.8 418.5C640.3 420.3 615.7 425.7 591 423.8C566.3 422 541.7 413 517 405.8C492.3 398.7 467.7 393.3 443 397C418.3 400.7 393.7 413.3 369 416C344.3 418.7 319.7 411.3 295.2 411.3C270.7 411.3 246.3 418.7 221.8 423.2C197.3 427.7 172.7 429.3 148 424.8C123.3 420.3 98.7 409.7 74 408.8C49.3 408 24.7 417 12.3 421.5L0 426Z" fill="#559df6"></path><path d="M0 498L12.3 498.8C24.7 499.7 49.3 501.3 74 501.3C98.7 501.3 123.3 499.7 148 500.7C172.7 501.7 197.3 505.3 221.8 508.8C246.3 512.3 270.7 515.7 295.2 513.8C319.7 512 344.3 505 369 501.5C393.7 498 418.3 498 443 499.8C467.7 501.7 492.3 505.3 517 508.8C541.7 512.3 566.3 515.7 591 514.7C615.7 513.7 640.3 508.3 664.8 508.3C689.3 508.3 713.7 513.7 738.2 513.7C762.7 513.7 787.3 508.3 812 506.7C836.7 505 861.3 507 886 505.2C910.7 503.3 935.3 497.7 947.7 494.8L960 492L960 420L947.7 423.7C935.3 427.3 910.7 434.7 886 440.2C861.3 445.7 836.7 449.3 812 449.3C787.3 449.3 762.7 445.7 738.2 444.7C713.7 443.7 689.3 445.3 664.8 447.2C640.3 449 615.7 451 591 449.2C566.3 447.3 541.7 441.7 517 435.3C492.3 429 467.7 422 443 423C418.3 424 393.7 433 369 437.5C344.3 442 319.7 442 295.2 444.7C270.7 447.3 246.3 452.7 221.8 453.5C197.3 454.3 172.7 450.7 148 443.5C123.3 436.3 98.7 425.7 74 425.7C49.3 425.7 24.7 436.3 12.3 441.7L0 447Z" fill="#62a7f9"></path><path d="M0 541L12.3 541C24.7 541 49.3 541 74 541C98.7 541 123.3 541 148 541C172.7 541 197.3 541 221.8 541C246.3 541 270.7 541 295.2 541C319.7 541 344.3 541 369 541C393.7 541 418.3 541 443 541C467.7 541 492.3 541 517 541C541.7 541 566.3 541 591 541C615.7 541 640.3 541 664.8 541C689.3 541 713.7 541 738.2 541C762.7 541 787.3 541 812 541C836.7 541 861.3 541 886 541C910.7 541 935.3 541 947.7 541L960 541L960 490L947.7 492.8C935.3 495.7 910.7 501.3 886 503.2C861.3 505 836.7 503 812 504.7C787.3 506.3 762.7 511.7 738.2 511.7C713.7 511.7 689.3 506.3 664.8 506.3C640.3 506.3 615.7 511.7 591 512.7C566.3 513.7 541.7 510.3 517 506.8C492.3 503.3 467.7 499.7 443 497.8C418.3 496 393.7 496 369 499.5C344.3 503 319.7 510 295.2 511.8C270.7 513.7 246.3 510.3 221.8 506.8C197.3 503.3 172.7 499.7 148 498.7C123.3 497.7 98.7 499.3 74 499.3C49.3 499.3 24.7 497.7 12.3 496.8L0 496Z" fill="#6fb1fc"></path></svg>